<?xml version="1.0" standalone="no"?>
<!DOCTYPE svg PUBLIC "-//W3C//DTD SVG 20010904//EN"
 "http://www.w3.org/TR/2001/REC-SVG-20010904/DTD/svg10.dtd">
<svg version="1.0" xmlns="http://www.w3.org/2000/svg"
 width="500.000000pt" height="500.000000pt" viewBox="0 0 500.000000 500.000000"
 preserveAspectRatio="xMidYMid meet">

<g transform="translate(0.000000,500.000000) scale(0.100000,-0.100000)"
fill="#000000" stroke="none">
<path d="M200 2939 c-77 -24 -120 -80 -120 -159 0 -121 112 -181 243 -131 15
6 27 18 27 27 0 13 -6 15 -27 10 -72 -17 -120 -18 -151 -2 -39 20 -52 44 -52
93 0 91 76 141 198 130 54 -5 220 -42 279 -62 9 -3 2 -26 -22 -77 -20 -40 -56
-138 -81 -218 -88 -278 -125 -348 -202 -382 -67 -30 -126 -21 -169 26 -28 31
-33 43 -33 86 0 86 42 140 132 171 63 21 72 45 16 42 -188 -11 -260 -277 -98
-361 37 -19 56 -23 104 -19 127 11 174 80 285 416 40 120 84 237 99 260 l27
42 60 -8 c33 -4 90 -8 128 -8 55 1 71 4 88 22 16 15 20 28 15 46 -14 58 -147
69 -245 21 l-59 -30 -128 33 c-142 36 -260 48 -314 32z m704 -59 c27 -27 -68
-39 -159 -21 -39 8 -39 8 -15 18 14 6 34 13 45 16 29 8 117 -1 129 -13z"/>
<path d="M2285 2936 c-141 -53 -150 -260 -12 -297 49 -13 121 -5 155 17 39 25
13 39 -45 24 -102 -26 -168 13 -168 100 0 40 5 54 29 79 41 42 85 55 170 47
58 -5 182 -32 277 -62 15 -4 13 -12 -12 -57 -16 -30 -59 -145 -97 -258 -38
-112 -80 -226 -94 -254 -41 -79 -101 -125 -161 -125 -21 0 -22 5 -23 88 0 48
-8 113 -16 144 l-16 57 31 10 c16 6 38 11 48 11 13 0 19 7 19 21 0 19 -4 21
-30 15 -16 -3 -43 -9 -60 -12 -23 -5 -30 -3 -30 8 0 24 -57 96 -89 113 -17 8
-45 14 -63 14 l-33 -1 37 -7 c70 -14 103 -47 140 -143 59 -153 62 -344 6 -395
-25 -23 -122 -20 -233 7 -106 25 -146 41 -196 81 -52 41 -69 76 -69 141 -1 43
-3 50 -12 34 -6 -11 -8 -39 -5 -68 7 -53 -9 -72 -39 -47 -13 10 -14 27 -8 100
6 86 6 88 -21 115 l-27 27 81 75 c77 70 98 102 67 102 -19 0 -256 -218 -256
-236 0 -18 14 -18 51 1 23 12 34 13 50 4 21 -11 21 -16 15 -100 -6 -86 -6 -90
18 -114 26 -26 55 -31 85 -15 14 7 23 4 37 -11 79 -87 365 -160 452 -115 17 9
36 25 42 36 7 12 21 20 38 20 48 0 102 20 138 52 51 45 89 127 159 343 63 193
104 294 129 314 10 8 38 8 107 -1 78 -9 102 -9 138 3 82 26 71 87 -18 109 -41
10 -60 9 -113 -5 -34 -9 -73 -22 -85 -30 -31 -21 -51 -19 -183 16 -140 37
-249 45 -305 25z m708 -55 c27 -27 -57 -40 -148 -22 -39 8 -39 8 -15 18 59 25
141 26 163 4z"/>
<path d="M1613 2798 c-17 -28 -222 -611 -217 -619 11 -19 26 -7 43 34 32 73
201 553 201 570 0 21 -17 30 -27 15z"/>
<path d="M3945 2638 c-111 -313 -142 -370 -218 -407 -104 -50 -167 -5 -154
109 13 110 118 260 182 260 37 0 52 -38 35 -90 -7 -22 -10 -43 -7 -46 14 -14
37 8 47 46 22 83 -25 141 -101 125 -20 -5 -53 -28 -84 -59 -40 -40 -60 -73
-94 -153 -52 -123 -92 -190 -125 -204 -83 -38 -73 54 37 343 14 36 23 69 20
72 -13 13 -30 5 -42 -20 l-11 -26 -18 22 c-10 13 -33 23 -57 26 -78 10 -139
-54 -210 -224 -71 -167 -135 -237 -172 -186 -17 23 -13 46 33 186 33 100 36
128 14 128 -5 0 -34 9 -63 20 l-54 20 5 50 c5 58 -8 80 -48 80 -59 0 -79 -66
-35 -119 l26 -30 -47 -100 c-26 -57 -44 -107 -40 -116 10 -27 26 -7 72 93 25
53 47 98 49 100 6 6 105 -28 105 -36 0 -4 -14 -50 -30 -102 -36 -115 -39 -181
-9 -211 32 -32 84 -20 130 29 l37 39 13 -31 c18 -39 57 -61 92 -52 15 3 45 22
66 41 l38 35 7 -30 c7 -36 42 -56 83 -45 15 3 47 26 69 50 l42 43 23 -36 c13
-20 35 -42 49 -50 33 -17 112 -9 156 17 33 20 34 20 34 1 0 -24 15 -33 28 -17
9 11 42 95 82 212 10 28 45 128 79 223 33 95 61 175 61 177 0 3 -8 5 -19 5
-15 0 -29 -30 -76 -162z m-1073 2 c-3 -31 -11 -38 -22 -20 -16 25 -12 52 8 48
11 -3 16 -12 14 -28z m512 -62 c23 -33 20 -60 -20 -156 -57 -139 -115 -212
-169 -212 -20 0 -35 32 -35 75 0 50 45 180 82 238 47 74 112 99 142 55z"/>
<path d="M1269 2678 c-16 -26 -19 -43 -14 -82 5 -37 2 -53 -11 -67 -19 -21
-12 -51 11 -43 8 3 15 10 15 15 0 26 22 2 49 -53 20 -38 31 -76 31 -102 0
-100 -103 -166 -190 -121 -30 15 -60 61 -60 90 0 25 37 92 55 99 45 17 95 -8
95 -46 0 -19 27 -32 35 -17 12 18 -7 69 -32 89 -15 11 -41 20 -60 20 -58 0
-88 -26 -139 -123 -50 -93 -85 -130 -118 -125 -46 7 -28 102 67 350 14 36 23
69 20 72 -13 13 -30 5 -42 -21 l-12 -26 -15 21 c-19 27 -75 38 -115 22 -64
-27 -136 -143 -165 -269 -20 -85 -13 -139 21 -168 42 -36 81 -28 141 29 l31
29 6 -30 c14 -68 87 -65 154 5 l42 43 18 -29 c20 -35 86 -70 129 -70 38 1 103
31 131 61 56 62 57 136 4 241 -33 64 -37 79 -26 88 8 6 22 32 31 56 22 59 9
94 -36 94 -23 0 -35 -7 -51 -32z m61 -18 c0 -6 -8 -25 -17 -43 l-18 -32 -3 28
c-3 28 12 57 29 57 5 0 9 -5 9 -10z m-406 -82 c23 -33 20 -60 -20 -156 -57
-139 -115 -212 -169 -212 -20 0 -35 32 -35 75 0 50 45 180 82 238 47 74 112
99 142 55z"/>
<path d="M4616 2694 c-23 -22 -20 -76 5 -108 l21 -27 -22 -52 c-93 -216 -163
-297 -257 -297 -63 0 -105 65 -86 133 7 23 19 32 74 51 120 42 189 105 189
173 0 34 -8 46 -37 62 -33 17 -62 13 -108 -14 -50 -29 -93 -91 -140 -204 -47
-112 -60 -135 -95 -170 -35 -34 -64 -40 -78 -14 -5 9 -7 53 -4 99 5 80 4 83
-23 110 l-28 28 24 19 c108 86 171 166 124 155 -22 -5 -255 -219 -255 -234 0
-18 12 -18 54 3 30 14 37 14 52 2 13 -11 16 -27 12 -94 -6 -88 2 -116 37 -135
35 -19 75 -4 121 44 l41 43 10 -27 c21 -55 95 -81 172 -60 72 19 130 87 201
234 33 69 63 126 67 126 6 0 91 -30 100 -35 1 0 -13 -49 -32 -108 -42 -129
-44 -169 -10 -202 50 -50 113 -20 174 82 42 72 58 117 44 126 -15 9 -27 -5
-62 -76 -62 -125 -142 -158 -141 -59 1 15 18 78 39 139 44 127 45 123 -40 152
l-54 18 3 48 c2 34 -2 52 -14 66 -21 23 -57 25 -78 3z m54 -48 c0 -33 -16 -42
-30 -16 -12 23 -6 40 16 40 8 0 14 -10 14 -24z m-172 -82 c2 -25 -4 -37 -34
-64 -36 -31 -88 -59 -143 -75 -23 -7 -23 -6 9 54 43 80 91 123 133 119 28 -3
32 -7 35 -34z"/>
<path d="M1997 2627 c-52 -40 -97 -85 -97 -96 0 -20 17 -12 28 14 9 20 80 75
96 75 3 0 6 -8 9 -17 4 -17 4 -17 12 0 8 18 1 47 -12 47 -4 -1 -21 -11 -36
-23z"/>
<path d="M1840 2583 c0 -10 9 -33 20 -50 20 -33 20 -33 0 -33 -11 0 -44 -22
-74 -49 -29 -27 -60 -51 -67 -53 -19 -7 -1 -25 34 -33 17 -5 27 -3 27 4 0 6
-12 11 -26 11 -24 0 -23 3 26 48 63 56 112 81 69 35 -33 -35 -81 -141 -68
-149 5 -3 26 3 47 13 40 19 80 72 89 115 4 20 16 30 52 44 83 31 165 113 99
100 -13 -3 -39 -7 -59 -11 -21 -3 -47 -17 -64 -35 -16 -17 -34 -30 -41 -30
-18 0 -44 40 -44 67 0 13 -4 23 -10 23 -5 0 -10 -8 -10 -17z m195 -43 c-10
-11 -41 -28 -68 -39 -45 -16 -53 -24 -64 -58 -14 -42 -74 -108 -92 -102 -16 6
32 102 62 126 15 11 23 23 19 27 -3 4 0 4 9 1 9 -3 29 8 52 30 26 25 45 35 68
35 31 0 32 0 14 -20z"/>
<path d="M2126 2471 c-3 -5 -2 -21 4 -35 12 -33 53 -37 48 -5 -4 25 -43 55
-52 40z"/>
<path d="M1970 2396 c0 -28 24 -51 45 -42 22 8 18 32 -7 50 -31 22 -38 20 -38
-8z"/>
<path d="M2130 2319 c0 -23 22 -49 40 -49 26 0 27 36 1 50 -25 13 -41 13 -41
-1z"/>
<path d="M1884 2277 c-8 -23 14 -57 37 -57 27 0 22 37 -8 57 -20 14 -23 14
-29 0z"/>
<path d="M1796 2223 c26 -41 81 -79 142 -97 42 -14 22 11 -24 29 -26 10 -64
35 -85 56 -46 46 -58 50 -33 12z"/>
<path d="M2007 2232 c-8 -12 12 -52 29 -59 18 -7 35 13 28 32 -6 15 -52 37
-57 27z m38 -32 c3 -5 1 -10 -4 -10 -6 0 -11 5 -11 10 0 6 2 10 4 10 3 0 8 -4
11 -10z"/>
<path d="M2140 2176 c0 -22 35 -60 48 -52 19 11 14 44 -7 56 -27 14 -41 13
-41 -4z"/>
</g>
</svg>
